<svg xmlns="http://www.w3.org/2000/svg" viewBox="0 0 256 256">
  <rect width="256" height="256" rx="56" fill="#121826"/>
  <circle cx="128" cy="142" r="76" fill="#f8fafc"/>
  <circle cx="78" cy="86" r="22" fill="#111827"/>
  <circle cx="178" cy="86" r="22" fill="#111827"/>
  <ellipse cx="96" cy="138" rx="22" ry="28" fill="#111827" opacity=".95"/>
  <ellipse cx="160" cy="138" rx="22" ry="28" fill="#111827" opacity=".95"/>
  <ellipse cx="100" cy="146" rx="8" ry="10" fill="#fff"/>
  <ellipse cx="156" cy="146" rx="8" ry="10" fill="#fff"/>
  <circle cx="102" cy="144" r="3" fill="#111827"/>
  <circle cx="158" cy="144" r="3" fill="#111827"/>
  <ellipse cx="128" cy="160" rx="10" ry="8" fill="#111827"/>
  <path d="M118 172 Q128 184 138 172" stroke="#111827" stroke-width="6" fill="none" stroke-linecap="round"/>
  <path d="M84 170 Q104 164 124 170" stroke="#111827" stroke-width="6" fill="none" opacity=".18" stroke-linecap="round"/>
  <path d="M132 170 Q152 164 172 170" stroke="#111827" stroke-width="6" fill="none" opacity=".18" stroke-linecap="round"/>
  <circle cx="86" cy="174" r="10" fill="#94a3b8" opacity=".45"/>
  <circle cx="170" cy="174" r="10" fill="#94a3b8" opacity=".45"/>
  <path d="M64 208 Q96 188 128 196 Q160 188 192 208" fill="#22c55e" opacity=".16"/>
  <text x="128" y="226" text-anchor="middle" font-size="16" fill="#e5e7eb" font-family="system-ui,Segoe UI">Panda</text>
</svg>